<svg width="246" height="246" viewBox="0 0 246 246" fill="none" xmlns="http://www.w3.org/2000/svg">
<rect width="246" height="246" rx="123" fill="#F49A40"/>
<path fill-rule="evenodd" clip-rule="evenodd" d="M182.789 47.7141L200.926 66.0243C203.36 68.4818 203.36 72.5055 200.926 74.9757L187.014 89.0203L160.01 61.7715L173.934 47.7141C176.369 45.2566 180.354 45.2566 182.789 47.7141ZM88.9732 61.5168L118.361 103.803L154.725 67.0939L181.716 94.3555L140.636 135.84L159.846 163.471L146.615 173.135L126.383 150.241L96.7428 180.164C94.3085 182.621 90.3228 182.621 87.8885 180.164L69.7384 161.854C67.3041 159.396 67.3041 155.373 69.7384 152.902L100.918 121.426L57.63 72.4418C38.0673 50.0315 58.8661 18.186 88.9732 61.5168ZM61.2877 160.759L88.4056 188.122L57.6048 193.254L61.2877 160.759ZM156.541 173.021C167.224 165.05 174.741 165.852 178.967 174.994C179.963 177.159 183.003 186.429 189.259 191.496C195.402 196.475 205 197.163 205 197.468C189.965 198.882 128.237 199.391 156.541 173.021Z" fill="white"/>
</svg>
